<svg id="Layer_1" data-name="Layer 1" xmlns="http://www.w3.org/2000/svg" xmlns:xlink="http://www.w3.org/1999/xlink" viewBox="0 0 1080 810"><defs><style>.cls-1{fill:none;}.cls-2{fill:#1358a5;}.cls-3{clip-path:url(#clip-path);}</style><clipPath id="clip-path"><rect class="cls-1" x="-1100" width="1080" height="810"/></clipPath></defs><path class="cls-2" d="M358,504.74H318.45c.95,11.71,6.18,15.38,12.87,15.38,6.17,0,10.67-3.46,11.61-9.42h14.43c-2.82,13-13.28,19.56-26.35,19.56-15.28,0-27.09-9.52-27.09-29.08,0-17.05,11.19-29.49,28.24-29.49s26,13,26,28.13A42.84,42.84,0,0,1,358,504.74Zm-39.12-9.41h24.48c-.94-8.79-4.92-13.5-11.82-13.5C324.84,481.83,320.13,486.12,318.87,495.33Z"/><path class="cls-2" d="M399.31,528.8H383.2l-21.65-55.65h16l14,44.77,13.7-44.77h15.59Z"/><path class="cls-2" d="M475.77,504.74H436.24c.94,11.71,6.17,15.38,12.86,15.38,6.17,0,10.67-3.46,11.61-9.42h14.44c-2.83,13-13.29,19.56-26.36,19.56-15.27,0-27.09-9.52-27.09-29.08,0-17.05,11.19-29.49,28.24-29.49s26,13,26,28.13A42.84,42.84,0,0,1,475.77,504.74Zm-39.11-9.41h24.47c-.94-8.79-4.92-13.5-11.82-13.5C442.62,481.83,437.91,486.12,436.66,495.33Z"/><path class="cls-2" d="M538.22,497.42V528.8H523.79V499.4c0-2.3,0-4.91-.21-7.74-.42-5.85-3.66-9.83-10.67-9.83s-12.55,6.07-12.55,21.55V528.8H485.92V473.15h14.44v9l4.29-6.59c4-2.83,8.05-3.87,13.38-3.87,11.82,0,18.62,5.85,19.77,15.58A87.24,87.24,0,0,1,538.22,497.42Z"/><path class="cls-2" d="M579.64,483.09v-9.45H545.55v9.45h8.15V510.5c0,3.13,0,5.54.21,8,.63,7.84,4.5,11.4,15.28,11.4a57.5,57.5,0,0,0,9.51-.74V519.8c-8.05.63-10-.63-10.45-6.07-.11-1.46-.11-3-.11-4.91V483.09Zm-11.5-24.18H553.7v12.62h14.44Z"/><path class="cls-2" d="M640.94,497.42V528.8H626.5V499.4c0-2.3,0-4.91-.2-7.74-.42-5.85-3.67-9.83-10.67-9.83s-12.56,6.07-12.56,21.55V528.8H588.64V473.15h14.43v9l4.29-6.59c4-2.83,8.06-3.87,13.39-3.87,11.82,0,18.62,5.85,19.77,15.58A89.53,89.53,0,0,1,640.94,497.42Z"/><path class="cls-2" d="M705,528.8H690.52v-9.42l-4.29,7.12c-4.08,2.71-8.05,3.76-13.39,3.76-11.5,0-18.4-6.48-19.66-14.12a67.21,67.21,0,0,1-.52-10.15V473.15h14.43V503c0,1.78.11,4.81.42,7.64.73,5.75,4.08,9.41,10.77,9.41,7.22,0,12.24-6,12.24-18.51V473.15H705Z"/><path class="cls-2" d="M776.08,499.93c0,20.08-12.34,30.33-26.67,30.33-4.6,0-10.25-1.15-13.07-3.14l-3.66-5.75v7.43H718.24V451.92h14.44v29.7l4.18-6.06c3.14-2.51,8.79-3.87,14.44-3.87C766.88,471.69,776.08,483.51,776.08,499.93Zm-15,.94c0-11.4-5.44-19-14-19-8,0-14.43,4.92-14.43,18.52V503c0,12.66,7.21,17.16,13.91,17.16C755,520.12,761.13,513.73,761.13,500.87Z"/><path class="cls-2" d="M540,279.74a79,79,0,0,0-41.58,146.12q1.83-10.49,3.14-22a354.85,354.85,0,0,0,1.31-63.09l3.68-2c-.6,18.68,2,40.12,4.79,63.65,1.33,11.21,3,21.79,5,31.71a77.66,77.66,0,0,0,14,3,319.4,319.4,0,0,0,5-32c2.42-23.38,3.49-46.62,1.93-63.87l3.86-.95c-.6,18.68,1.2,39.81,4,63.34,1.4,11.85,3.23,23,5.33,33.39a78.16,78.16,0,0,0,13.2-2.92c2-9.92,3.66-20.51,5-31.71,2.79-23.53,5.39-45,4.79-63.65l3.67,2a354.94,354.94,0,0,0,1.32,63.09q1.27,11.54,3.14,22A79,79,0,0,0,540,279.74ZM509,330.05l2.08,6.23-6.21-2.14-5.28,3.9.11-6.56-5.34-3.82,6.28-1.92,2-6.26,3.77,5.38,6.56-.05Zm36.48-.67,1.45,8.5-7.62-4-7.63,4,1.45-8.5-6.17-6,8.53-1.24,3.82-7.73,3.81,7.73,8.53,1.24Zm34.92,2.1.12,6.56-5.29-3.9L569,336.28l2.08-6.23-3.95-5.24,6.57.05,3.76-5.38,2,6.26,6.28,1.92Z"/><g class="cls-3"><image width="739" height="415" transform="translate(-1408.34 -118.31) scale(2.23)" xlink:href="../Downloads/images%20(38).jpeg"/></g></svg>